# xmcd CD database file
#
# Track frame offsets:
#	150
#	5621
#	27736
#	33614
#	45870
#	55618
#	64247
#	70398
#	79214
#	83327
#	96504
#	119656
#	126450
#	129586
#	152514
#	166686
#	184949
#	191167
#	226745
#	232281
#	245551
#
# Disc length: 3396 seconds
#
# Revision: 0
# Processed by: cddbd v1.5.2PL0 Copyright (c) Steve Scherf et al.
# Submitted via: CDex 1.70beta2
#
DISCID=250d4215
DTITLE=Gilbert Keith Chesterton - Pater Brown 13 -  Der Geist von Gideon Wise
DYEAR=2008
DGENRE=Hörspiel
TTITLE0=Der Geist von Gideon Wise 01
TTITLE1=Der Geist von Gideon Wise 02
TTITLE2=Der Geist von Gideon Wise 03
TTITLE3=Der Geist von Gideon Wise 04
TTITLE4=Der Geist von Gideon Wise 05
TTITLE5=Der Geist von Gideon Wise 06
TTITLE6=Der Geist von Gideon Wise 07
TTITLE7=Der Geist von Gideon Wise 08
TTITLE8=Der Geist von Gideon Wise 09
TTITLE9=Der Geist von Gideon Wise 10
TTITLE10=Der Geist von Gideon Wise 11
TTITLE11=Der Geist von Gideon Wise 12
TTITLE12=Der Geist von Gideon Wise 13
TTITLE13=Der Geist von Gideon Wise 14
TTITLE14=Der Geist von Gideon Wise 15
TTITLE15=Der Geist von Gideon Wise 16
TTITLE16=Der Geist von Gideon Wise 17
TTITLE17=Der Geist von Gideon Wise 18
TTITLE18=Der Geist von Gideon Wise 19
TTITLE19=Der Geist von Gideon Wise 20
TTITLE20=Der Geist von Gideon Wise 21
EXTD=YEAR: 2008
EXTT0=
EXTT1=
EXTT2=
EXTT3=
EXTT4=
EXTT5=
EXTT6=
EXTT7=
EXTT8=
EXTT9=
EXTT10=
EXTT11=
EXTT12=
EXTT13=
EXTT14=
EXTT15=
EXTT16=
EXTT17=
EXTT18=
EXTT19=
EXTT20=
PLAYORDER=
